HIERARCHY
ROOT pelvis
{
	OFFSET 0.000000 0.000000 0.000000
	CHANNELS 6 Xposition Yposition Zposition Xrotation Yrotation Zrotation
	JOINT l_hip
	{
		OFFSET 0.195211 -0.245059 -0.022011
		CHANNELS 3 Xrotation Yrotation Zrotation
		JOINT l_knee
		{
			OFFSET 0.083896 -0.996307 -0.018298
			CHANNELS 3 Xrotation Yrotation Zrotation
			JOINT l_ankle
			{
				OFFSET -0.031606 -1.048662 -0.119000
				CHANNELS 3 Xrotation Yrotation Zrotation
				JOINT l_foot
				{
					OFFSET 0.063841 -0.149483 0.312863
					CHANNELS 3 Xrotation Yrotation Zrotation
					End Site
					{
						OFFSET 0.000000 0.000000 0.000000
					}
				}
			}
		}
	}
	JOINT r_hip
	{
		OFFSET -0.188785 -0.243354 -0.013119
		CHANNELS 3 Xrotation Yrotation Zrotation
		JOINT r_knee
		{
			OFFSET -0.098896 -1.013926 -0.025127
			CHANNELS 3 Xrotation Yrotation Zrotation
			JOINT r_ankle
			{
				OFFSET 0.038376 -1.049454 -0.114596
				CHANNELS 3 Xrotation Yrotation Zrotation
				JOINT r_foot
				{
					OFFSET -0.060300 -0.126955 0.322518
					CHANNELS 3 Xrotation Yrotation Zrotation
					End Site
					{
						OFFSET 0.000000 0.000000 0.000000
					}
				}
			}
		}
	}
	JOINT spine1
	{
		OFFSET -0.006861 0.282462 -0.060688
		CHANNELS 3 Xrotation Yrotation Zrotation
		JOINT spine2
		{
			OFFSET 0.009796 0.349212 -0.004686
			CHANNELS 3 Xrotation Yrotation Zrotation
			JOINT spine3
			{
				OFFSET 0.005545 0.134239 0.076232
				CHANNELS 3 Xrotation Yrotation Zrotation
				JOINT neck
				{
					OFFSET -0.005369 0.569656 -0.136135
					CHANNELS 3 Xrotation Yrotation Zrotation
					JOINT head
					{
						OFFSET 0.009621 0.170484 0.137338
						CHANNELS 3 Xrotation Yrotation Zrotation
						End Site
						{
							OFFSET 0.000000 0.000000 0.000000
						}
					}
				}
				JOINT l_collar
				{
					OFFSET 0.205981 0.322192 -0.100872
					CHANNELS 3 Xrotation Yrotation Zrotation
					JOINT l_shoulder
					{
						OFFSET 0.233388 0.086823 -0.019950
						CHANNELS 3 Xrotation Yrotation Zrotation
						JOINT l_elbow
						{
							OFFSET 0.687295 -0.032736 -0.075278
							CHANNELS 3 Xrotation Yrotation Zrotation
							JOINT l_wrist
							{
								OFFSET 0.651109 0.024639 0.000120
								CHANNELS 3 Xrotation Yrotation Zrotation
								JOINT l_hand
								{
									OFFSET 0.217934 -0.026487 -0.036124
									CHANNELS 3 Xrotation Yrotation Zrotation
									End Site
									{
										OFFSET 0.000000 0.000000 0.000000
									}
								}
							}
						}
					}
				}
				JOINT r_collar
				{
					OFFSET -0.210726 0.316244 -0.114374
					CHANNELS 3 Xrotation Yrotation Zrotation
					JOINT r_shoulder
					{
						OFFSET -0.244017 0.089684 -0.026814
						CHANNELS 3 Xrotation Yrotation Zrotation
						JOINT r_elbow
						{
							OFFSET -0.672913 -0.035979 -0.055153
							CHANNELS 3 Xrotation Yrotation Zrotation
							JOINT r_wrist
							{
								OFFSET -0.670689 0.023586 -0.009661
								CHANNELS 3 Xrotation Yrotation Zrotation
								JOINT r_hand
								{
									OFFSET -0.219937 -0.019827 -0.028502
									CHANNELS 3 Xrotation Yrotation Zrotation
									End Site
									{
										OFFSET 0.000000 0.000000 0.000000
									}
								}
							}
						}
					}
				}
			}
		}
	}
}
MOTION
Frames: 13
Frame Time: 0.016667
0.000000 0.000000 0.000000 0.000000 0.000000 0.000000 -18.804433 -6.627020 10.348486 12.890593 -14.686560 -0.516897 0.000000 0.000000 0.000000 0.000000 0.000000 0.000000 -15.564710 -6.682689 2.222247 15.718924 6.436621 1.997697 0.000000 0.000000 0.000000 0.000000 0.000000 0.000000 15.799558 -1.616210 -3.348076 -10.177139 1.438925 -15.857984 3.849201 -1.843093 -5.882858 -24.381863 0.133599 -7.677512 -13.140536 4.802149 6.997735 -11.033368 -0.527997 -6.310047 -23.441221 -5.776641 -17.635013 -30.197796 -28.983580 9.039934 0.000000 0.000000 0.000000 0.000000 0.000000 0.000000 -11.550606 5.183585 -11.613223 -11.133986 2.719463 0.072805 5.726629 30.610525 -11.997344 0.000000 0.000000 0.000000 0.000000 0.000000 0.000000 
0.000000 0.000000 0.000000 0.000000 0.000000 0.000000 -18.724292 -6.602997 10.180738 12.735394 -14.625624 -0.608276 0.000000 0.000000 0.000000 0.000000 0.000000 0.000000 -15.436543 -6.684831 1.964945 15.496760 6.277090 2.019970 0.000000 0.000000 0.000000 0.000000 0.000000 0.000000 15.748528 -1.501301 -3.187120 -9.946392 1.468249 -15.676037 3.846469 -1.734176 -5.791696 -24.127977 -0.283025 -7.467232 -13.011142 4.509678 6.964797 -10.912255 -0.286130 -6.557835 -22.916673 -5.532324 -18.065042 -29.703411 -29.739101 9.083676 0.000000 0.000000 0.000000 0.000000 0.000000 0.000000 -11.546459 5.320142 -11.396479 -11.271680 3.205780 0.099219 5.803100 31.371651 -12.380051 0.000000 0.000000 0.000000 0.000000 0.000000 0.000000 
0.000000 0.000000 0.000000 0.000000 0.000000 0.000000 -18.448540 -6.476295 10.082221 12.430888 -14.480116 -0.722271 0.000000 0.000000 0.000000 0.000000 0.000000 0.000000 -15.214547 -6.632679 1.754892 15.213525 6.155279 2.019488 0.000000 0.000000 0.000000 0.000000 0.000000 0.000000 15.588198 -1.392505 -3.081973 -9.749980 1.532439 -15.489179 3.791134 -1.639537 -5.692638 -23.759581 -0.759416 -7.073352 -12.740014 4.228487 6.901538 -10.782426 0.046780 -6.721740 -22.415250 -5.253950 -18.398490 -29.106039 -30.280205 9.254076 0.000000 0.000000 0.000000 0.000000 0.000000 0.000000 -11.634361 5.480444 -11.272307 -11.435010 4.038797 0.340528 5.804071 32.124287 -12.664636 0.000000 0.000000 0.000000 0.000000 0.000000 0.000000 
0.000000 0.000000 0.000000 0.000000 0.000000 0.000000 -18.286490 -6.377300 9.981749 12.180084 -14.366319 -0.820777 0.000000 0.000000 0.000000 0.000000 0.000000 0.000000 -15.061376 -6.585415 1.565566 14.957389 5.957318 2.034101 0.000000 0.000000 0.000000 0.000000 0.000000 0.000000 15.512118 -1.310709 -2.975609 -9.614328 1.550035 -15.248433 3.739187 -1.561012 -5.581430 -23.363795 -1.111367 -6.635841 -12.458719 3.921149 6.825604 -10.643320 0.345546 -6.863966 -21.962356 -5.053824 -18.712644 -28.268091 -30.737758 9.467434 0.000000 0.000000 0.000000 0.000000 0.000000 0.000000 -11.707616 5.609766 -11.033729 -11.663904 4.909102 0.564728 5.841797 32.733617 -13.163056 0.000000 0.000000 0.000000 0.000000 0.000000 0.000000 
0.000000 0.000000 0.000000 0.000000 0.000000 0.000000 -18.099307 -6.262267 9.823320 11.915163 -14.290207 -0.915899 0.000000 0.000000 0.000000 0.000000 0.000000 0.000000 -14.882139 -6.551873 1.315000 14.711020 5.812970 2.033400 0.000000 0.000000 0.000000 0.000000 0.000000 0.000000 15.426112 -1.185032 -2.815178 -9.360238 1.551670 -15.026985 3.679848 -1.456944 -5.475786 -23.129099 -1.632454 -6.405232 -12.394668 3.497077 6.836585 -10.575957 0.452285 -7.117199 -21.529856 -4.828119 -18.924343 -27.932903 -31.293479 9.549832 0.000000 0.000000 0.000000 0.000000 0.000000 0.000000 -11.741543 5.805402 -10.793776 -11.780854 5.235552 0.575029 5.694410 33.870953 -13.561572 0.000000 0.000000 0.000000 0.000000 0.000000 0.000000 
0.000000 0.000000 0.000000 0.000000 0.000000 0.000000 -17.877930 -6.149114 9.683328 11.535462 -14.205746 -1.012049 0.000000 0.000000 0.000000 0.000000 0.000000 0.000000 -14.681356 -6.530425 1.088278 14.390696 5.637572 2.017728 0.000000 0.000000 0.000000 0.000000 0.000000 0.000000 15.305992 -1.054931 -2.713904 -9.215293 1.524120 -14.737634 3.650783 -1.376138 -5.349713 -22.839042 -2.000282 -6.055032 -11.923500 3.092635 6.788802 -10.487737 0.566654 -7.323797 -21.215222 -4.660401 -19.231705 -27.652938 -31.977682 9.636255 0.000000 0.000000 0.000000 0.000000 0.000000 0.000000 -11.800488 5.891098 -10.471599 -11.889192 5.629579 0.816878 5.651675 35.479077 -14.497244 0.000000 0.000000 0.000000 0.000000 0.000000 0.000000 
0.000000 0.000000 0.000000 0.000000 0.000000 0.000000 -17.646028 -6.050360 9.524809 11.097300 -14.072596 -1.122009 0.000000 0.000000 0.000000 0.000000 0.000000 0.000000 -14.436445 -6.491110 0.855902 14.032659 5.411449 2.020801 0.000000 0.000000 0.000000 0.000000 0.000000 0.000000 15.202779 -0.958596 -2.607817 -9.038688 1.485195 -14.434122 3.589660 -1.327000 -5.210478 -22.529769 -2.601644 -5.668532 -11.532126 2.566484 6.787205 -10.342856 0.760412 -7.619294 -20.907695 -4.595838 -19.580252 -27.455444 -33.276337 9.740347 0.000000 0.000000 0.000000 0.000000 0.000000 0.000000 -11.847243 5.913552 -10.109303 -11.980264 6.021778 1.013205 5.490948 37.411465 -15.488337 0.000000 0.000000 0.000000 0.000000 0.000000 0.000000 
0.000000 0.000000 0.000000 0.000000 0.000000 0.000000 -17.392392 -5.967088 9.378434 10.711410 -13.945610 -1.226997 0.000000 0.000000 0.000000 0.000000 0.000000 0.000000 -14.145854 -6.482312 0.610848 13.651614 5.144239 2.040146 0.000000 0.000000 0.000000 0.000000 0.000000 0.000000 15.038947 -0.825074 -2.537766 -8.817202 1.407804 -14.080388 3.528599 -1.270481 -5.066590 -22.186318 -3.242870 -5.312291 -11.160948 1.861853 6.786150 -10.244420 0.927973 -7.890080 -20.639835 -4.594638 -19.931996 -27.128280 -34.948613 10.012098 0.000000 0.000000 0.000000 0.000000 0.000000 0.000000 -11.936184 5.891401 -9.675796 -12.121632 6.356072 1.297686 5.623291 39.696174 -17.087084 0.000000 0.000000 0.000000 0.000000 0.000000 0.000000 
0.000000 0.000000 0.000000 0.000000 0.000000 0.000000 -17.113883 -5.865031 9.232286 10.241663 -13.824400 -1.340505 0.000000 0.000000 0.000000 0.000000 0.000000 0.000000 -13.825163 -6.479827 0.361433 13.181037 4.814184 2.059620 0.000000 0.000000 0.000000 0.000000 0.000000 0.000000 14.825517 -0.681422 -2.488935 -8.579843 1.344180 -13.731253 3.410771 -1.211406 -4.954396 -21.748361 -3.918997 -4.813754 -10.557080 1.086824 6.792702 -10.200133 1.059346 -8.253411 -20.393725 -4.798818 -20.125446 -26.273089 -36.959039 10.566469 0.000000 0.000000 0.000000 0.000000 0.000000 0.000000 -12.035301 5.874120 -9.124958 -12.263724 6.624389 1.560081 5.878409 42.012572 -18.890280 0.000000 0.000000 0.000000 0.000000 0.000000 0.000000 
0.000000 0.000000 0.000000 0.000000 0.000000 0.000000 -16.866048 -5.730695 9.086663 9.768970 -13.704451 -1.478332 0.000000 0.000000 0.000000 0.000000 0.000000 0.000000 -13.441931 -6.514204 0.091578 12.637490 4.434564 2.086625 0.000000 0.000000 0.000000 0.000000 0.000000 0.000000 14.565855 -0.503641 -2.469175 -8.307195 1.229007 -13.324321 3.282567 -1.150058 -4.807508 -21.113192 -4.593955 -4.259769 -10.037110 0.264211 6.817944 -10.228053 1.099193 -8.550077 -20.251719 -5.209059 -20.371815 -25.090343 -38.987409 11.386607 0.000000 0.000000 0.000000 0.000000 0.000000 0.000000 -12.210707 5.803963 -8.586820 -12.491821 6.935637 1.993999 6.343708 44.457283 -21.131439 0.000000 0.000000 0.000000 0.000000 0.000000 0.000000 
0.000000 0.000000 0.000000 0.000000 0.000000 0.000000 -16.513937 -5.634750 8.973740 9.283785 -13.541806 -1.565838 0.000000 0.000000 0.000000 0.000000 0.000000 0.000000 -13.021835 -6.547125 -0.125432 12.160555 3.958093 2.144171 0.000000 0.000000 0.000000 0.000000 0.000000 0.000000 14.350311 -0.340728 -2.478797 -8.097141 1.083950 -12.842394 3.115619 -1.087505 -4.646934 -20.719763 -4.994492 -3.614944 -9.162593 -0.578048 6.815638 -10.152270 1.052776 -8.778078 -19.964687 -5.524601 -20.555249 -23.922207 -41.599072 12.239381 0.000000 0.000000 0.000000 0.000000 0.000000 0.000000 -12.356025 5.837206 -7.902504 -12.871751 7.392759 2.447172 6.616083 47.118065 -23.610958 0.000000 0.000000 0.000000 0.000000 0.000000 0.000000 
0.000000 0.000000 0.000000 0.000000 0.000000 0.000000 -16.148728 -5.481541 8.839579 8.735690 -13.411267 -1.661537 0.000000 0.000000 0.000000 0.000000 0.000000 0.000000 -12.581162 -6.582515 -0.359999 11.580306 3.585663 2.159562 0.000000 0.000000 0.000000 0.000000 0.000000 0.000000 14.093352 -0.209394 -2.467110 -7.985979 0.943657 -12.402235 3.008683 -1.065999 -4.482002 -20.263916 -5.471267 -3.027515 -8.300390 -1.422588 6.832512 -10.172940 0.989940 -8.738183 -19.844564 -6.037568 -20.830006 -22.663322 -44.198136 13.239402 0.000000 0.000000 0.000000 0.000000 0.000000 0.000000 -12.564000 5.920922 -7.503435 -13.153145 7.956442 3.187782 7.075271 49.783236 -26.011425 0.000000 0.000000 0.000000 0.000000 0.000000 0.000000 
0.000000 0.000000 0.000000 0.000000 0.000000 0.000000 -15.685316 -5.354506 8.709005 8.145115 -13.259649 -1.755833 0.000000 0.000000 0.000000 0.000000 0.000000 0.000000 -11.995256 -6.613753 -0.560259 10.934154 3.108985 2.149653 0.000000 0.000000 0.000000 0.000000 0.000000 0.000000 13.793930 -0.035630 -2.484434 -7.762043 0.773538 -11.897136 2.845933 -1.002617 -4.280161 -19.561049 -6.078779 -2.513052 -7.526517 -2.339023 6.907041 -10.164474 0.803753 -8.696820 -19.661079 -6.692956 -21.234855 -20.982983 -47.371133 14.812982 0.000000 0.000000 0.000000 0.000000 0.000000 0.000000 -12.639041 6.086862 -7.066233 -13.529108 8.418819 3.993226 7.784377 52.571430 -29.030585 0.000000 0.000000 0.000000 0.000000 0.000000 0.000000 
